<?xml version="1.0" encoding="UTF-8"?>
<svg xmlns="http://www.w3.org/2000/svg" xmlns:xlink="http://www.w3.org/1999/xlink" width="2234" height="2241" viewBox="0 0 2234 2241">
<path fill-rule="nonzero" fill="rgb(100%, 100%, 100%)" fill-opacity="1" d="M 0.96875 2266.457031 L 2266.539062 2266.457031 L 2266.539062 0.886719 L 0.96875 0.886719 Z M 0.96875 2266.457031 "/>
<path fill-rule="nonzero" fill="rgb(100%, 80.859375%, 52.539062%)" fill-opacity="1" d="M 1053.558594 570.210938 C 719.828125 570.351562 437.691406 665.441406 393.023438 792.820312 L 391.757812 792.480469 C 391.757812 792.480469 157.34375 1382.351562 159.175781 1478.546875 C 161.007812 1574.738281 225.332031 1670.496094 405.257812 1731.226562 C 850.074219 1812.820312 1285.320312 1802.089844 1691.558594 1731.226562 C 1871.488281 1670.496094 1935.820312 1574.738281 1937.648438 1478.546875 C 1939.210938 1396.734375 1771 960.769531 1720.328125 831.371094 C 1648.410156 599.820312 1135.011719 571.160156 1053.558594 570.210938 Z M 1053.558594 570.210938 "/>
<path fill-rule="nonzero" fill="rgb(82.8125%, 46.263123%, 0%)" fill-opacity="1" d="M 1053.558594 570.210938 C 723.148438 570.210938 446.484375 646.109375 413.558594 745.78125 C 360.121094 891.019531 182.683594 1169.769531 300.46875 1246.632812 C 388.839844 1290.820312 409.035156 1132.839844 450.640625 1174.441406 C 487.761719 1266.78125 395.285156 1354.921875 359.671875 1424.234375 C 302.710938 1650.125 456.492188 1722.792969 593.578125 1584.5 C 620.628906 1557.210938 593.578125 1263.980469 652.78125 1204.769531 C 676.054688 1181.488281 716.3125 1260.808594 716.3125 1276.957031 C 733.121094 1403.101562 644.074219 1662.5625 880.699219 1630.917969 C 999.035156 1554.648438 910.765625 1316.609375 957.433594 1213.429688 C 979.546875 1169.210938 1005.390625 1290.292969 1032.941406 1364.007812 C 1051.441406 1416.527344 1115.710938 1446.121094 1162.460938 1411.234375 C 1227.660156 1346.039062 1187.101562 1188.800781 1257.761719 1118.128906 C 1304.710938 1071.179688 1391.078125 1205.238281 1364.609375 1258.183594 C 1338.160156 1311.089844 1344.359375 1405.1875 1351.621094 1463.214844 C 1378.820312 1603.253906 1524.691406 1663.511719 1614.398438 1542.632812 C 1697.808594 1394.046875 1494.960938 1189.800781 1541.589844 1049.921875 C 1550.730469 986.390625 1594.898438 983.371094 1616.601562 1049.578125 C 1635.070312 1105.890625 1647.089844 1198.160156 1682.230469 1254.328125 C 1754.679688 1339.351562 1852.601562 1319.832031 1856.570312 1223.519531 C 1836.769531 1048.800781 1788.300781 850.410156 1672.398438 729.179688 C 1587.390625 640.941406 1366.269531 570.261719 1053.558594 570.210938 Z M 1053.558594 570.210938 "/>
<path fill-rule="nonzero" fill="rgb(95.701599%, 53.318787%, 0%)" fill-opacity="1" d="M 1638.140625 722.980469 L 1630.570312 732.011719 L 1629.699219 736.058594 L 1629.660156 736.570312 L 1629.539062 736.75 L 1628.980469 737.460938 L 1627.980469 738.511719 L 1626.589844 739.730469 L 1624.691406 741.179688 L 1622.261719 742.800781 L 1619.679688 744.339844 L 1612.730469 747.898438 L 1604.339844 751.519531 L 1594.390625 755.191406 L 1583.179688 758.808594 L 1570.699219 762.359375 L 1557.140625 765.808594 L 1557.078125 765.828125 L 1541.75 769.320312 L 1525.890625 772.589844 L 1508.578125 775.820312 L 1508.339844 775.859375 L 1508.300781 775.871094 L 1490.179688 778.941406 L 1490.050781 778.96875 L 1489.941406 778.980469 L 1470.761719 781.949219 L 1470.578125 781.96875 L 1470.539062 781.980469 L 1460.890625 783.339844 L 1450.558594 789 L 1446.558594 800.070312 L 1450.890625 811.03125 L 1461.390625 816.378906 L 1465.53125 816.308594 L 1475.390625 814.929688 L 1475.621094 814.890625 L 1495.261719 811.871094 L 1495.511719 811.820312 L 1514.140625 808.660156 L 1514.410156 808.621094 L 1532 805.339844 L 1532.300781 805.28125 L 1548.808594 801.878906 L 1549.148438 801.808594 L 1564.539062 798.289062 L 1564.941406 798.191406 L 1579.179688 794.570312 L 1579.640625 794.449219 L 1592.691406 790.730469 L 1593.238281 790.558594 L 1605.070312 786.75 L 1605.730469 786.519531 L 1616.300781 782.609375 L 1617.109375 782.28125 L 1626.390625 778.28125 L 1627.398438 777.808594 L 1635.351562 773.730469 L 1636.28125 773.21875 L 1639.75 771.160156 L 1640.46875 770.691406 L 1643.578125 768.609375 L 1644.410156 768.03125 L 1647.171875 765.929688 L 1648.089844 765.179688 L 1650.5 763.058594 L 1651.511719 762.089844 L 1653.570312 759.949219 L 1654.660156 758.691406 L 1656.351562 756.550781 L 1657.46875 754.941406 L 1658.789062 752.769531 L 1659.839844 750.738281 L 1660.789062 748.558594 L 1661.640625 746.121094 L 1662.210938 743.929688 L 1662.691406 741.160156 L 1662.878906 738.949219 L 1659.679688 727.609375 L 1649.789062 721.21875 Z M 427.394531 728.789062 L 419.046875 737.109375 L 418.292969 748.859375 L 419.996094 752.640625 L 421.335938 754.839844 L 422.453125 756.460938 L 424.167969 758.640625 L 425.261719 759.910156 L 427.34375 762.070312 L 428.367188 763.039062 L 430.808594 765.191406 L 431.730469 765.941406 L 434.535156 768.070312 L 435.351562 768.660156 L 438.515625 770.769531 L 439.570312 771.410156 L 446.933594 775.570312 L 448.070312 776.160156 L 456.796875 780.230469 L 457.707031 780.621094 L 467.746094 784.601562 L 468.480469 784.871094 L 479.804688 788.761719 L 480.40625 788.949219 L 487.597656 791.121094 L 499.351562 790.308594 L 507.628906 781.921875 L 508.285156 770.160156 L 500.992188 760.910156 L 497.203125 759.230469 L 490.394531 757.179688 L 479.675781 753.5 L 470.378906 749.820312 L 462.6875 746.21875 L 456.542969 742.75 L 454.222656 741.210938 L 452.347656 739.78125 L 450.875 738.480469 L 449.835938 737.410156 L 449.28125 736.699219 L 448.441406 735.320312 L 439.148438 728.078125 Z M 671.539062 795.160156 L 665.023438 804.980469 L 666.632812 816.640625 L 675.566406 824.328125 L 679.601562 825.25 L 697.851562 827.070312 L 698.011719 827.089844 L 722.554688 829.308594 L 722.707031 829.320312 L 748.003906 831.371094 L 748.144531 831.390625 L 774.15625 833.269531 L 774.285156 833.28125 L 800.96875 834.988281 L 801.097656 835 L 828.421875 836.539062 L 828.542969 836.550781 L 856.457031 837.910156 L 856.589844 837.910156 L 879.914062 838.871094 L 891.085938 835.160156 L 897.015625 824.980469 L 894.722656 813.421875 L 885.359375 806.269531 L 881.277344 805.589844 L 858.074219 804.640625 L 857.953125 804.628906 L 830.289062 803.289062 L 830.160156 803.28125 L 803.101562 801.75 L 802.96875 801.75 L 776.554688 800.050781 L 776.425781 800.039062 L 750.699219 798.171875 L 750.550781 798.160156 L 725.546875 796.140625 L 725.546875 796.128906 L 701.160156 793.929688 L 701.007812 793.921875 L 682.910156 792.109375 Z M 1271.460938 802.460938 L 1271.460938 802.46875 L 1243.808594 803.921875 L 1243.808594 803.929688 L 1215.660156 805.191406 L 1215.53125 805.199219 L 1186.789062 806.269531 L 1157.371094 807.160156 L 1157.238281 807.160156 L 1127.429688 807.851562 L 1127.308594 807.851562 L 1097.019531 808.328125 L 1097.019531 808.320312 L 1080.25 808.46875 L 1069.269531 812.730469 L 1063.851562 823.199219 L 1066.710938 834.628906 L 1076.429688 841.300781 L 1080.539062 841.769531 L 1097.308594 841.628906 L 1097.429688 841.628906 L 1127.960938 841.140625 L 1128.078125 841.140625 L 1158.128906 840.460938 L 1158.25 840.449219 L 1187.789062 839.558594 L 1187.910156 839.558594 L 1216.898438 838.46875 L 1217.03125 838.460938 L 1245.429688 837.179688 L 1245.558594 837.171875 L 1273.351562 835.71875 L 1273.480469 835.710938 L 1281.089844 835.25 L 1291.839844 830.421875 L 1296.699219 819.691406 L 1293.25 808.429688 L 1283.210938 802.269531 L 1279.089844 802 Z M 1271.460938 802.460938 "/>
<path fill-rule="evenodd" fill="rgb(95.701599%, 53.318787%, 0%)" fill-opacity="1" d="M 578.660156 1361.78125 C 576.351562 1375.558594 575.589844 1389.4375 573.554688 1403.160156 C 561.371094 1485.457031 532.683594 1543.402344 470.4375 1571.429688 C 458.808594 1576.667969 372.261719 1591.320312 416.328125 1621.085938 C 462.296875 1652.136719 527.40625 1600.675781 559.261719 1557.640625 C 574.242188 1537.402344 575.324219 1496.683594 581.722656 1470.746094 C 587.554688 1447.125 601.617188 1307.515625 578.660156 1361.78125 Z M 578.660156 1361.78125 "/>
<path fill-rule="evenodd" fill="rgb(95.701599%, 53.318787%, 0%)" fill-opacity="1" d="M 917.625 1379.214844 C 916.765625 1390.234375 915.515625 1400.542969 913.542969 1411.203125 C 904.761719 1458.632812 902.289062 1505.539062 876.785156 1546.867188 C 867.300781 1562.238281 802.6875 1596.96875 826.757812 1622.972656 C 842.121094 1639.570312 880.628906 1597.183594 888.015625 1593.191406 C 902.050781 1585.609375 952.191406 1393.394531 933.960938 1373.703125 C 925.734375 1364.816406 920.894531 1373.039062 917.625 1379.214844 Z M 917.625 1379.214844 "/>
<path fill-rule="evenodd" fill="rgb(95.701599%, 53.318787%, 0%)" fill-opacity="1" d="M 1193.289062 1192.699219 C 1194.46875 1225.390625 1188.640625 1257.210938 1181.039062 1287.648438 C 1172.738281 1320.828125 1142.210938 1340.773438 1120.800781 1362.179688 C 1108.75 1374.222656 1119.269531 1421.902344 1134.070312 1407.105469 C 1139.960938 1401.214844 1148.308594 1390.796875 1154.488281 1387.707031 C 1181.730469 1374.082031 1227.730469 1205.691406 1208.601562 1186.570312 C 1204.710938 1182.691406 1198.738281 1192.019531 1193.289062 1192.699219 Z M 1193.289062 1192.699219 "/>
<path fill-rule="evenodd" fill="rgb(95.701599%, 53.318787%, 0%)" fill-opacity="1" d="M 1550.628906 1268.25 C 1552.941406 1302.207031 1579.210938 1340.78125 1579.210938 1372.390625 C 1579.210938 1399.433594 1528.039062 1543.019531 1507.75 1563.3125 C 1500.199219 1570.859375 1517.261719 1590.71875 1525.109375 1586.796875 C 1548.699219 1574.996094 1563.839844 1559.296875 1582.28125 1540.851562 C 1627.21875 1495.90625 1606.601562 1275.246094 1550.628906 1268.25 Z M 1550.628906 1268.25 "/>
<path fill-rule="evenodd" fill="rgb(95.701599%, 53.318787%, 0%)" fill-opacity="1" d="M 1507.300781 1050.210938 C 1512.570312 1074.929688 1499.441406 1111.03125 1510.191406 1132.519531 C 1516.308594 1144.769531 1532.480469 1265.753906 1550.609375 1256.6875 C 1559.449219 1252.269531 1510.371094 1050.601562 1507.300781 1050.210938 Z M 1507.300781 1050.210938 "/>
<path fill-rule="evenodd" fill="rgb(95.701599%, 53.318787%, 0%)" fill-opacity="1" d="M 1807.628906 1028.558594 C 1817.769531 1056.960938 1815.058594 1092.730469 1824.949219 1122.410156 C 1844.75 1181.800781 1793.191406 1225.839844 1793.191406 1275.457031 C 1793.191406 1310.808594 1830.449219 1265.625 1837.941406 1258.132812 C 1864.589844 1231.488281 1819.179688 1038.191406 1807.628906 1028.558594 Z M 1807.628906 1028.558594 "/>
<path fill-rule="evenodd" fill="rgb(95.701599%, 53.318787%, 0%)" fill-opacity="1" d="M 399.585938 1153.890625 C 382.582031 1155.488281 292.132812 1211.710938 312.804688 1239.089844 C 342.28125 1278.140625 403.683594 1175.589844 399.585938 1153.890625 Z M 399.585938 1153.890625 "/>
<path fill-rule="nonzero" fill="rgb(82.8125%, 0%, 0%)" fill-opacity="1" d="M 1063.390625 550.929688 C 1063.390625 621.46875 1006.199219 678.660156 935.660156 678.660156 C 865.117188 678.660156 807.929688 621.46875 807.929688 550.929688 C 807.929688 480.390625 865.117188 423.199219 935.660156 423.199219 C 1006.199219 423.199219 1063.390625 480.390625 1063.390625 550.929688 Z M 1063.390625 550.929688 "/>
<path fill="none" stroke-width="256.418" stroke-linecap="butt" stroke-linejoin="miter" stroke="rgb(54.101562%, 0%, 0%)" stroke-opacity="1" stroke-miterlimit="4" d="M 8894.84375 17752.1875 C 9106.992188 17560.195312 9518.164062 17488.59375 9866.289062 17788.203125 " transform="matrix(0.1, 0, 0, -0.1, 0, 2241)"/>
<path fill="none" stroke-width="256.418" stroke-linecap="butt" stroke-linejoin="miter" stroke="rgb(54.101562%, 0%, 0%)" stroke-opacity="1" stroke-miterlimit="4" d="M 9368.554688 17602.304688 C 9400.703125 18243.789062 9374.53125 19067.695312 8708.945312 19317.304688 " transform="matrix(0.1, 0, 0, -0.1, 0, 2241)"/>
<path fill-rule="nonzero" fill="rgb(76.951599%, 0%, 0%)" fill-opacity="1" d="M 1033.191406 558.820312 C 1033.191406 629.359375 1090.378906 686.550781 1160.921875 686.550781 C 1231.460938 686.550781 1288.648438 629.359375 1288.648438 558.820312 C 1288.648438 488.28125 1231.460938 431.089844 1160.921875 431.089844 C 1090.378906 431.089844 1033.191406 488.28125 1033.191406 558.820312 Z M 1033.191406 558.820312 "/>
<path fill="none" stroke-width="256.418" stroke-linecap="butt" stroke-linejoin="miter" stroke="rgb(54.101562%, 0%, 0%)" stroke-opacity="1" stroke-miterlimit="4" d="M 12071.015625 17673.28125 C 11858.789062 17481.289062 11447.695312 17409.804688 11099.492188 17709.296875 " transform="matrix(0.1, 0, 0, -0.1, 0, 2241)"/>
<path fill="none" stroke-width="256.418" stroke-linecap="butt" stroke-linejoin="miter" stroke="rgb(54.101562%, 0%, 0%)" stroke-opacity="1" stroke-miterlimit="4" d="M 11597.304688 17523.398438 C 11565.117188 18164.882812 11591.289062 18988.90625 12256.914062 19238.398438 " transform="matrix(0.1, 0, 0, -0.1, 0, 2241)"/>
</svg>
