<?xml version="1.0" encoding="UTF-8"?>
<svg xmlns="http://www.w3.org/2000/svg" xmlns:xlink="http://www.w3.org/1999/xlink" width="3000" height="3000" viewBox="0 0 3000 3000">
<path fill-rule="nonzero" fill="rgb(100%, 100%, 100%)" fill-opacity="1" d="M 1230 1980 L 1770 1980 L 1770 1020 L 1230 1020 Z M 1230 1980 "/>
<rect x="-300" y="-300" width="3600" height="3600" fill="rgb(30.979919%, 97.264099%, 97.264099%)" fill-opacity="1"/>
<path fill-rule="nonzero" fill="rgb(100%, 100%, 100%)" fill-opacity="1" d="M 844.015625 1153.800781 L 1055.71875 1929.71875 L 1083.519531 1949.308594 C 1197.691406 2032.179688 1323.46875 2075.566406 1460.878906 2079.460938 C 1637.878906 2084.441406 1849.199219 2055.226562 2094.820312 1991.820312 C 2379.449219 1918.140625 2553.929688 1815.609375 2618.289062 1684.199219 C 2692.140625 1530 2642.308594 1393.109375 2468.808594 1273.53125 C 2239.570312 1133.429688 1970.929688 1047.410156 1662.878906 1015.5 C 1555.269531 1007.410156 1447.570312 1012.421875 1339.761719 1030.539062 C 1320.878906 1028.5 1155.871094 1069.519531 844.734375 1153.609375 "/>
<path fill-rule="nonzero" fill="rgb(100%, 100%, 100%)" fill-opacity="1" d="M 2113.910156 1150.890625 L 1905.769531 1927.769531 L 1878.058594 1947.480469 C 1764.269531 2030.878906 1638.691406 2074.84375 1501.300781 2079.367188 C 1324.320312 2085.160156 1112.878906 2056.914062 866.960938 1994.628906 C 582.003906 1922.269531 407.046875 1820.53125 342.089844 1689.421875 C 267.535156 1535.558594 316.734375 1398.441406 489.679688 1278.070312 C 718.277344 1136.910156 986.523438 1049.671875 1294.421875 1016.351562 C 1401.988281 1007.761719 1509.710938 1012.269531 1617.609375 1029.898438 C 1636.480469 1027.769531 1801.679688 1068.039062 2113.199219 1150.699219 "/>
<path fill-rule="nonzero" fill="rgb(95.3125%, 95.3125%, 95.3125%)" fill-opacity="1" d="M 877.195312 1174.269531 L 1081.210938 1884.71875 L 1107 1902.378906 C 1212.929688 1977.148438 1329.050781 2015.484375 1455.371094 2017.386719 C 1618.089844 2019.800781 1811.929688 1990.371094 2036.871094 1929.109375 C 2297.53125 1857.929688 2456.628906 1761.570312 2514.160156 1640.03125 C 2580.140625 1497.421875 2532.691406 1372.230469 2371.789062 1264.460938 C 2159.410156 1138.511719 1911.488281 1062.75 1628.019531 1037.179688 C 1529.03125 1031.050781 1430.109375 1036.96875 1331.269531 1054.941406 C 1313.878906 1053.289062 1162.75 1093.011719 877.851562 1174.078125 "/>
<path fill-rule="nonzero" fill="rgb(95.3125%, 95.3125%, 95.3125%)" fill-opacity="1" d="M 2044.148438 1156.089844 L 1862.359375 1872.558594 L 1837.128906 1891.011719 C 1733.589844 1969.039062 1618.710938 2010.972656 1492.519531 2016.808594 C 1329.941406 2024.289062 1135.289062 2000.914062 908.539062 1946.679688 C 645.792969 1883.648438 483.773438 1792.300781 422.480469 1672.601562 C 352.089844 1532.121094 395.625 1405.511719 553.089844 1292.789062 C 761.441406 1160.28125 1006.890625 1076.828125 1289.429688 1042.449219 C 1388.171875 1033.25 1487.230469 1036.078125 1586.589844 1050.960938 C 1603.910156 1048.78125 1756.210938 1083.769531 2043.488281 1155.929688 "/>
<path fill-rule="nonzero" fill="rgb(87.5%, 36.473083%, 18.821716%)" fill-opacity="1" d="M 2024.300781 1139.5 L 972.382812 1237.210938 C 848.796875 1268.421875 759.414062 1305.351562 704.230469 1348.011719 C 617.316406 1421.378906 594.226562 1508.929688 634.964844 1610.660156 C 643.875 1627.480469 657.640625 1643.488281 676.265625 1658.671875 L 703.15625 1677.851562 C 765.109375 1713.679688 800.636719 1735.789062 809.730469 1744.160156 C 821.527344 1753.199219 833.453125 1763.5 845.503906 1775.039062 C 905.230469 1836.398438 939.039062 1869.539062 946.929688 1874.460938 C 970.210938 1893.871094 992.4375 1907.160156 1013.601562 1914.339844 C 1045.308594 1925.351562 1083.351562 1928.328125 1127.738281 1923.28125 C 1143.320312 1921.691406 1162.878906 1918.648438 1186.410156 1914.128906 C 1294.960938 1890.558594 1358.160156 1877.550781 1376.019531 1875.078125 C 1413.730469 1868.480469 1446.019531 1864.941406 1472.890625 1864.46875 C 1490.839844 1863.980469 1509.640625 1865.890625 1529.300781 1870.21875 L 1609.058594 1896.371094 C 1618.46875 1899.191406 1628.628906 1901.460938 1639.519531 1903.179688 C 1670.199219 1907.449219 1698.378906 1907.160156 1724.039062 1902.320312 C 1747.410156 1898.089844 1768.328125 1891 1786.808594 1881.03125 C 1787.78125 1882.589844 1819.390625 1861.121094 1881.628906 1816.628906 C 1896.890625 1806.960938 1912.640625 1798.800781 1928.871094 1792.140625 C 1941.519531 1786.828125 1957.601562 1781.871094 1977.121094 1777.269531 C 2075.898438 1759.5 2134.039062 1747.011719 2151.53125 1739.820312 C 2190.109375 1727.5 2223.058594 1710.609375 2250.398438 1689.128906 C 2356.878906 1598.121094 2388.46875 1497.878906 2345.179688 1388.398438 C 2295.421875 1269.429688 2189.179688 1186.710938 2026.460938 1140.238281 "/>
<path fill-rule="nonzero" fill="rgb(92.96875%, 49.414062%, 23.535156%)" fill-opacity="1" d="M 727.964844 1352.230469 C 713.417969 1359.378906 701.765625 1366.761719 693.003906 1374.378906 C 679.671875 1387.5 670.539062 1398.960938 665.613281 1408.75 C 663.199219 1412.660156 658.449219 1423.628906 651.367188 1441.648438 C 649.816406 1445.378906 648.460938 1449.960938 647.289062 1455.390625 C 644.929688 1465.609375 643.660156 1472.941406 643.480469 1477.421875 C 642.320312 1489.378906 642.1875 1499.769531 643.089844 1508.589844 C 644.28125 1527.898438 649.691406 1539.558594 659.324219 1543.570312 C 671.3125 1545.269531 680.988281 1539.789062 688.347656 1527.140625 C 692 1520.890625 694.375 1513.238281 695.476562 1504.191406 C 695.886719 1500.578125 696.179688 1496.039062 696.351562 1490.578125 C 696.085938 1476.398438 696.253906 1463.71875 696.855469 1452.550781 C 697.410156 1444.140625 698.523438 1435.96875 700.1875 1428.039062 C 703.480469 1413.730469 706.1875 1404.039062 708.3125 1398.929688 C 714.554688 1382.75 721.207031 1368.589844 728.273438 1356.441406 L 727.988281 1352.46875 "/>
<path fill-rule="nonzero" fill="rgb(92.96875%, 49.414062%, 23.535156%)" fill-opacity="1" d="M 931.679688 1811.179688 C 939.21875 1834.050781 950.804688 1853.308594 966.429688 1868.980469 C 983.351562 1887.089844 1003.519531 1899.859375 1026.949219 1907.269531 C 1038.441406 1911.769531 1054.429688 1915.179688 1074.898438 1917.5 C 1090.460938 1918.78125 1102.378906 1917.441406 1110.628906 1913.5 C 1117 1910.558594 1120.550781 1904.800781 1121.269531 1896.191406 C 1120.660156 1887.171875 1116.289062 1878.488281 1108.128906 1870.160156 C 1099.699219 1861.851562 1089.25 1855.941406 1076.789062 1852.429688 C 1073.671875 1851.558594 1069.398438 1850.808594 1064 1850.171875 C 1041.441406 1848.730469 1026.128906 1847.269531 1018.058594 1845.78125 C 1009.691406 1844.820312 1001.300781 1842.910156 992.859375 1840.058594 C 987.027344 1838.160156 981.203125 1835.871094 975.386719 1833.191406 C 962.550781 1827.050781 951.421875 1820.890625 941.988281 1814.71875 L 931.882812 1811.25 "/>
<path fill-rule="nonzero" fill="rgb(92.96875%, 49.414062%, 23.535156%)" fill-opacity="1" d="M 1645.519531 1878.628906 C 1648.050781 1887.578125 1656.539062 1893.988281 1670.96875 1897.878906 C 1680.519531 1900.261719 1688.441406 1901.421875 1694.75 1901.371094 C 1703.921875 1901.230469 1712.871094 1900.261719 1721.589844 1898.480469 C 1730.46875 1896.679688 1741.410156 1893.5 1754.398438 1888.921875 C 1765.191406 1885.109375 1773.761719 1881.410156 1780.109375 1877.839844 C 1787.28125 1874.078125 1796.589844 1867.488281 1808.03125 1858.070312 C 1813.960938 1853.121094 1819.101562 1847.671875 1823.441406 1841.710938 L 1812.011719 1847.039062 C 1809.230469 1848.109375 1806.25 1849.019531 1803.089844 1849.789062 C 1788.929688 1853.070312 1775.710938 1855.230469 1763.429688 1856.25 C 1754.550781 1856.890625 1747.511719 1857.050781 1742.320312 1856.710938 L 1722.621094 1855.5 C 1706.050781 1853.898438 1694.121094 1852.941406 1686.839844 1852.621094 C 1680.578125 1852.550781 1675.46875 1852.941406 1671.5 1853.789062 C 1663.820312 1855.511719 1657.378906 1858.730469 1652.148438 1863.480469 C 1646.800781 1868.871094 1644.578125 1873.898438 1645.511719 1878.550781 "/>
<path fill-rule="nonzero" fill="rgb(92.96875%, 49.414062%, 23.535156%)" fill-opacity="1" d="M 2137.121094 1710.328125 C 2155.089844 1719.261719 2191.78125 1706.261719 2247.199219 1671.320312 C 2277.410156 1653.03125 2303.878906 1622.671875 2326.578125 1580.230469 C 2332.320312 1569.570312 2337.75 1553.28125 2342.878906 1531.339844 C 2347.191406 1504.230469 2349.050781 1478.941406 2348.46875 1455.480469 C 2346.320312 1424.390625 2332.351562 1395.921875 2306.558594 1370.070312 L 2305.019531 1390.390625 C 2303.160156 1393.550781 2299.710938 1408.121094 2294.648438 1434.109375 C 2292.878906 1459.210938 2290.570312 1481.558594 2287.730469 1501.140625 C 2283.640625 1519.96875 2278.53125 1535.261719 2272.398438 1547.011719 C 2266.449219 1560.808594 2255.121094 1575.230469 2238.390625 1590.25 C 2233.75 1594.429688 2228.179688 1598.660156 2221.679688 1602.960938 C 2190.261719 1622.21875 2172.609375 1633.539062 2168.71875 1636.929688 C 2157.789062 1644.511719 2149.859375 1651.570312 2144.910156 1658.109375 C 2136.820312 1667.53125 2131.828125 1677.808594 2129.929688 1688.949219 C 2128.269531 1698.46875 2130.558594 1705.53125 2136.820312 1710.128906 "/>
<path fill-rule="nonzero" fill="rgb(100%, 80.076599%, 19.993591%)" fill-opacity="1" d="M 1555.351562 827.148438 C 1454.679688 824.640625 1348.679688 831.820312 1237.371094 848.648438 C 1198.351562 856.5 1155.78125 865.828125 1109.660156 876.628906 L 1084.179688 884.890625 C 1047.03125 898.53125 1012.371094 917.738281 980.1875 942.511719 C 931.570312 979.039062 895.105469 1023.960938 870.785156 1077.269531 L 760.085938 1389.539062 C 752.863281 1414.25 748.421875 1433.871094 746.761719 1448.390625 C 737.265625 1539.988281 809.628906 1628.949219 963.84375 1715.269531 C 1102.539062 1791.140625 1260.539062 1831.328125 1437.859375 1835.839844 C 1626.179688 1840.300781 1792.5 1809.808594 1936.800781 1744.378906 C 2117.160156 1654.019531 2212.890625 1565.269531 2223.988281 1478.140625 C 2227.808594 1453.480469 2222.730469 1419.261719 2208.769531 1375.488281 L 2097.011719 1075.5 C 2079.230469 1035.011719 2054.980469 999.78125 2024.238281 969.808594 C 1976.050781 923.601562 1921.121094 891.089844 1859.429688 872.261719 C 1702.53125 836.769531 1601.28125 821.738281 1555.679688 827.160156 Z M 1555.351562 827.148438 "/>
<path fill-rule="nonzero" fill="rgb(100%, 84.375%, 36.863708%)" fill-opacity="1" d="M 1001.589844 1237.398438 L 817.144531 1526.539062 C 855.074219 1566.53125 893.167969 1598.789062 931.421875 1623.308594 C 1031.578125 1686.148438 1174.011719 1732.960938 1358.710938 1763.730469 C 1475.640625 1783.269531 1606.398438 1776.539062 1751.011719 1743.53125 L 1715.339844 1397.328125 C 1546.300781 1423.871094 1420.871094 1426.679688 1339.058594 1405.75 C 1256.328125 1389.441406 1143.871094 1333.339844 1001.691406 1237.46875 "/>
<path fill-rule="nonzero" fill="rgb(100%, 84.375%, 36.863708%)" fill-opacity="1" d="M 2108.640625 1106.738281 C 2102.941406 1115.28125 2097.199219 1123.210938 2091.421875 1130.519531 C 2042.859375 1199.621094 1946.191406 1279.148438 1801.429688 1369.089844 L 1900.871094 1698.949219 C 2053.980469 1610.230469 2162.03125 1528.421875 2225.019531 1453.519531 L 2225.03125 1453.519531 C 2223.988281 1432.210938 2218.570312 1406.199219 2208.769531 1375.488281 L 2108.648438 1106.730469 Z M 2108.640625 1106.738281 "/>
<path fill-rule="nonzero" fill="rgb(87.5%, 36.473083%, 18.821716%)" fill-opacity="1" d="M 1501.300781 826.730469 C 1416.921875 827.488281 1328.941406 834.800781 1237.371094 848.648438 C 1198.351562 856.5 1155.78125 865.828125 1109.660156 876.628906 L 1084.179688 884.890625 C 1047.03125 898.53125 1012.371094 917.738281 980.1875 942.511719 C 931.570312 979.039062 895.105469 1023.960938 870.785156 1077.269531 L 843.3125 1154.761719 L 843.316406 1154.761719 C 850.410156 1193.871094 866.964844 1224.859375 892.984375 1247.710938 C 918.945312 1273.210938 954.3125 1296.191406 999.085938 1316.660156 C 1040.058594 1336.589844 1111.859375 1360 1214.480469 1386.910156 C 1232.589844 1393.839844 1244.441406 1402.230469 1250.039062 1412.101562 C 1256.921875 1424.359375 1258.078125 1437.089844 1253.519531 1450.269531 L 1206.019531 1531.441406 C 1200.148438 1543.871094 1197.550781 1556.730469 1198.199219 1570.039062 C 1204.378906 1614.359375 1224.789062 1638.769531 1259.441406 1643.25 C 1259.949219 1643.261719 1260.449219 1643.261719 1260.960938 1643.25 C 1289.398438 1643 1310.128906 1630.898438 1323.148438 1606.96875 C 1329 1594.558594 1332.03125 1581.679688 1332.25 1568.320312 C 1324.808594 1516.269531 1322.890625 1490.21875 1326.511719 1490.171875 C 1330.851562 1471.511719 1340.738281 1457.140625 1356.191406 1447.078125 C 1367.691406 1441.640625 1378.320312 1438.878906 1388.089844 1438.789062 C 1402.011719 1438.660156 1414.179688 1443.980469 1424.589844 1454.71875 C 1427.320312 1459.78125 1428.320312 1465.5 1427.609375 1471.910156 C 1418.589844 1511.390625 1415.410156 1535.261719 1418.078125 1543.519531 C 1420.238281 1563.058594 1428.328125 1580.640625 1442.359375 1596.261719 C 1454.269531 1608.769531 1468.589844 1614.941406 1485.328125 1614.800781 C 1494.871094 1614.710938 1505.191406 1612.570312 1516.289062 1608.371094 C 1539.75 1597.699219 1551.589844 1580.039062 1551.820312 1555.398438 C 1551.488281 1539.820312 1548.191406 1526.261719 1541.898438 1514.730469 C 1540.410156 1509.390625 1529.769531 1496.980469 1509.988281 1477.5 L 1502.980469 1463.488281 C 1499.761719 1449.320312 1504.429688 1437.351562 1517 1427.558594 C 1528.410156 1419.058594 1543.269531 1412.761719 1561.601562 1408.660156 C 1679.699219 1389.101562 1756.589844 1373.140625 1792.28125 1360.75 C 1845.941406 1344.300781 1897.128906 1323.570312 1945.828125 1298.570312 C 2043.589844 1248.320312 2102.339844 1196.390625 2122.070312 1142.789062 L 2122.078125 1142.789062 L 2097.011719 1075.5 C 2079.230469 1035.011719 2054.980469 999.78125 2024.238281 969.808594 C 1976.050781 923.601562 1921.121094 891.089844 1859.429688 872.261719 C 1721.261719 841.011719 1626.25 825.621094 1574.390625 826.089844 C 1567.359375 826.148438 1561.128906 826.511719 1555.679688 827.160156 L 1555.351562 827.148438 C 1537.5 826.699219 1519.480469 826.558594 1501.300781 826.730469 Z M 1501.300781 826.730469 "/>
<path fill-rule="nonzero" fill="rgb(87.5%, 36.473083%, 18.821716%)" fill-opacity="1" d="M 1555.351562 827.148438 C 1454.949219 824.648438 1349.140625 831.78125 1237.898438 848.550781 C 1198.53125 856.460938 1155.730469 865.828125 1109.519531 876.671875 C 1055 892.230469 1004.730469 920.03125 958.710938 960.078125 C 933.386719 981.828125 911.769531 1006.769531 893.859375 1034.890625 L 893.863281 1034.890625 C 878.195312 1104.179688 915.859375 1163.109375 1006.859375 1211.679688 C 1110.800781 1263.300781 1249.699219 1292.75 1423.570312 1300.019531 C 1427.878906 1300.160156 1432.160156 1300.289062 1436.441406 1300.390625 C 1583.96875 1304.058594 1717.648438 1286.980469 1837.46875 1249.148438 C 1965.019531 1205.449219 2040.609375 1153.359375 2064.269531 1092.890625 C 2071.320312 1076 2073.269531 1053.570312 2070.109375 1025.621094 L 2070.121094 1025.621094 C 2052.929688 999.238281 2032.351562 975.820312 2008.390625 955.359375 C 1962.058594 914.960938 1909.890625 886.519531 1851.898438 870.039062 C 1783.890625 854.941406 1721.679688 843.03125 1665.269531 834.28125 L 1665.28125 834.28125 C 1643.058594 831.769531 1621.851562 830 1601.640625 829 C 1586.339844 828.148438 1570.910156 827.53125 1555.351562 827.148438 Z M 1555.351562 827.148438 "/>
<path fill-rule="nonzero" fill="rgb(92.96875%, 49.414062%, 23.535156%)" fill-opacity="1" d="M 1407.730469 830.160156 C 1352.589844 833.660156 1295.988281 839.789062 1237.898438 848.550781 C 1198.53125 856.460938 1155.730469 865.828125 1109.519531 876.671875 C 1055 892.230469 1004.730469 920.03125 958.710938 960.078125 C 933.386719 981.828125 911.769531 1006.769531 893.859375 1034.890625 L 893.863281 1034.890625 C 878.195312 1104.179688 915.859375 1163.109375 1006.859375 1211.679688 C 1110.800781 1263.300781 1249.699219 1292.75 1423.570312 1300.019531 C 1427.878906 1300.160156 1432.160156 1300.289062 1436.441406 1300.390625 C 1454.121094 1300.828125 1471.601562 1300.980469 1488.878906 1300.820312 C 1530.300781 1300.441406 1570.570312 1298.359375 1609.710938 1294.558594 C 1569.710938 1289.761719 1528.921875 1282.378906 1487.339844 1272.421875 C 1307.679688 1231.25 1189.558594 1181.441406 1132.960938 1123.019531 C 1077.289062 1059.890625 1092.128906 994.628906 1177.5 927.210938 C 1215.070312 894.71875 1291.820312 862.371094 1407.730469 830.160156 Z M 1407.730469 830.160156 "/>
<path fill-rule="nonzero" fill="rgb(92.96875%, 49.414062%, 23.535156%)" fill-opacity="1" d="M 1858.859375 872.089844 C 1920.179688 908.828125 1961.21875 939 1981.96875 962.609375 C 2021.5 1003.128906 2031.628906 1044.699219 2012.359375 1087.328125 C 1988.980469 1140.980469 1933.820312 1193.828125 1846.871094 1245.890625 C 1968.730469 1202.859375 2041.199219 1151.859375 2064.269531 1092.890625 C 2071.320312 1076 2073.269531 1053.570312 2070.109375 1025.621094 L 2070.121094 1025.621094 C 2052.929688 999.238281 2032.351562 975.820312 2008.390625 955.359375 C 1963.921875 916.578125 1914.078125 888.820312 1858.871094 872.089844 Z M 1858.859375 872.089844 "/>
</svg>
